<?xml version="1.0" standalone="no"?>
<!DOCTYPE svg PUBLIC "-//W3C//DTD SVG 20010904//EN"
 "http://www.w3.org/TR/2001/REC-SVG-20010904/DTD/svg10.dtd">
<svg version="1.0" xmlns="http://www.w3.org/2000/svg"
 width="700.000000pt" height="700.000000pt" viewBox="0 0 700.000000 700.000000"
 preserveAspectRatio="xMidYMid meet">
<metadata>
Created by potrace 1.14, written by Peter Selinger 2001-2017
</metadata>
<g transform="translate(0.000000,700.000000) scale(0.100000,-0.100000)"
fill="#000000" stroke="none">
<path d="M1032 5059 c-16 -6 -17 -102 -17 -1563 0 -1031 3 -1556 10 -1557 13
-1 504 -1 530 0 20 1 20 7 20 572 0 374 3 573 10 575 5 1 134 5 285 7 151 3
289 8 305 11 17 4 67 13 112 22 262 47 478 170 634 361 175 214 238 628 143
952 -37 129 -110 247 -219 354 -129 127 -353 222 -595 251 -144 18 -1175 30
-1218 15z m1066 -473 c190 -31 311 -103 379 -224 43 -77 52 -115 60 -248 9
-176 -39 -311 -146 -406 -47 -41 -162 -102 -216 -114 -154 -33 -193 -36 -390
-38 l-210 -1 -1 515 c0 283 1 518 3 522 4 8 469 3 521 -6z"/>
<path d="M3754 5062 l-31 -3 0 -1560 0 -1559 36 -1 c157 -4 1236 1 1274 5 26
3 68 8 95 11 126 15 295 66 411 125 55 27 168 107 209 147 120 116 208 301
229 478 13 109 4 316 -16 368 -5 12 -9 27 -10 32 -8 63 -75 185 -138 251 -98
104 -197 158 -372 203 -36 9 -66 21 -68 27 -2 5 23 15 54 23 241 55 415 254
458 523 14 91 12 288 -4 331 -6 15 -8 27 -6 27 12 0 -57 165 -90 214 -41 63
-118 135 -182 172 -120 71 -339 139 -513 160 -25 3 -56 7 -70 9 -78 14 -1153
28 -1266 17z m1166 -477 c196 -28 309 -94 367 -214 24 -50 27 -67 27 -166 1
-104 -5 -133 -37 -205 -36 -78 -133 -153 -232 -178 -86 -23 -121 -25 -436 -29
l-326 -5 2 404 c1 221 3 404 3 405 5 4 594 -6 632 -12z m55 -1257 c6 -3 27 -9
48 -12 145 -23 267 -97 320 -195 56 -102 70 -278 32 -401 -56 -180 -195 -279
-435 -306 -72 -8 -649 -12 -652 -4 -3 11 -5 916 -1 922 4 9 674 5 688 -4z"/>
</g>
</svg>
